<?xml version="1.0" encoding="utf-8" ?>
<svg baseProfile="full" height="100%" version="1.1" viewBox="0,0,3400,3400" width="100%" xmlns="http://www.w3.org/2000/svg" xmlns:ev="http://www.w3.org/2001/xml-events" xmlns:xlink="http://www.w3.org/1999/xlink"><defs /><polygon fill="#ffffff" points="300,0 400,50 400,150 300,200 200,150 200,50" stroke="rgb(10%,10%,16%)" /><polygon fill="#ffffff" points="500,0 600,50 600,150 500,200 400,150 400,50" stroke="rgb(10%,10%,16%)" /><polygon fill="#000000" points="700,0 800,50 800,150 700,200 600,150 600,50" stroke="rgb(10%,10%,16%)" /><polygon fill="#ffffff" points="900,0 1000,50 1000,150 900,200 800,150 800,50" stroke="rgb(10%,10%,16%)" /><polygon fill="#ffffff" points="1100,0 1200,50 1200,150 1100,200 1000,150 1000,50" stroke="rgb(10%,10%,16%)" /><polygon fill="#ffffff" points="1300,0 1400,50 1400,150 1300,200 1200,150 1200,50" stroke="rgb(10%,10%,16%)" /><polygon fill="#000000" points="1500,0 1600,50 1600,150 1500,200 1400,150 1400,50" stroke="rgb(10%,10%,16%)" /><polygon fill="#000000" points="1700,0 1800,50 1800,150 1700,200 1600,150 1600,50" stroke="rgb(10%,10%,16%)" /><polygon fill="#ffffff" points="1900,0 2000,50 2000,150 1900,200 1800,150 1800,50" stroke="rgb(10%,10%,16%)" /><polygon fill="#ffffff" points="200,150 300,200 300,300 200,350 100,300 100,200" stroke="rgb(10%,10%,16%)" /><polygon fill="#ffffff" points="400,150 500,200 500,300 400,350 300,300 300,200" stroke="rgb(10%,10%,16%)" /><polygon fill="#000000" points="600,150 700,200 700,300 600,350 500,300 500,200" stroke="rgb(10%,10%,16%)" /><polygon fill="#000000" points="800,150 900,200 900,300 800,350 700,300 700,200" stroke="rgb(10%,10%,16%)" /><polygon fill="#ffffff" points="1000,150 1100,200 1100,300 1000,350 900,300 900,200" stroke="rgb(10%,10%,16%)" /><polygon fill="#ffffff" points="1200,150 1300,200 1300,300 1200,350 1100,300 1100,200" stroke="rgb(10%,10%,16%)" /><polygon fill="#ffffff" points="1400,150 1500,200 1500,300 1400,350 1300,300 1300,200" stroke="rgb(10%,10%,16%)" /><polygon fill="#000000" points="1600,150 1700,200 1700,300 1600,350 1500,300 1500,200" stroke="rgb(10%,10%,16%)" /><polygon fill="#ffffff" points="1800,150 1900,200 1900,300 1800,350 1700,300 1700,200" stroke="rgb(10%,10%,16%)" /><polygon fill="#ffffff" points="2000,150 2100,200 2100,300 2000,350 1900,300 1900,200" stroke="rgb(10%,10%,16%)" /><polygon fill="#ffffff" points="100,300 200,350 200,450 100,500 0,450 0,350" stroke="rgb(10%,10%,16%)" /><polygon fill="#ffffff" points="300,300 400,350 400,450 300,500 200,450 200,350" stroke="rgb(10%,10%,16%)" /><polygon fill="#000000" points="500,300 600,350 600,450 500,500 400,450 400,350" stroke="rgb(10%,10%,16%)" /><polygon fill="#ffffff" points="700,300 800,350 800,450 700,500 600,450 600,350" stroke="rgb(10%,10%,16%)" /><polygon fill="#000000" points="900,300 1000,350 1000,450 900,500 800,450 800,350" stroke="rgb(10%,10%,16%)" /><polygon fill="#ffffff" points="1100,300 1200,350 1200,450 1100,500 1000,450 1000,350" stroke="rgb(10%,10%,16%)" /><polygon fill="#ffffff" points="1300,300 1400,350 1400,450 1300,500 1200,450 1200,350" stroke="rgb(10%,10%,16%)" /><polygon fill="#000000" points="1500,300 1600,350 1600,450 1500,500 1400,450 1400,350" stroke="rgb(10%,10%,16%)" /><polygon fill="#ffffff" points="1700,300 1800,350 1800,450 1700,500 1600,450 1600,350" stroke="rgb(10%,10%,16%)" /><polygon fill="#ffffff" points="1900,300 2000,350 2000,450 1900,500 1800,450 1800,350" stroke="rgb(10%,10%,16%)" /><polygon fill="#ffffff" points="2100,300 2200,350 2200,450 2100,500 2000,450 2000,350" stroke="rgb(10%,10%,16%)" /><polygon fill="#ffffff" points="0,450 100,500 100,600 0,650 -100,600 -100,500" stroke="rgb(10%,10%,16%)" /><polygon fill="#ffffff" points="200,450 300,500 300,600 200,650 100,600 100,500" stroke="rgb(10%,10%,16%)" /><polygon fill="#000000" points="400,450 500,500 500,600 400,650 300,600 300,500" stroke="rgb(10%,10%,16%)" /><polygon fill="#000000" points="600,450 700,500 700,600 600,650 500,600 500,500" stroke="rgb(10%,10%,16%)" /><polygon fill="#000000" points="800,450 900,500 900,600 800,650 700,600 700,500" stroke="rgb(10%,10%,16%)" /><polygon fill="#000000" points="1000,450 1100,500 1100,600 1000,650 900,600 900,500" stroke="rgb(10%,10%,16%)" /><polygon fill="#ffffff" points="1200,450 1300,500 1300,600 1200,650 1100,600 1100,500" stroke="rgb(10%,10%,16%)" /><polygon fill="#ffffff" points="1400,450 1500,500 1500,600 1400,650 1300,600 1300,500" stroke="rgb(10%,10%,16%)" /><polygon fill="#000000" points="1600,450 1700,500 1700,600 1600,650 1500,600 1500,500" stroke="rgb(10%,10%,16%)" /><polygon fill="#ffffff" points="1800,450 1900,500 1900,600 1800,650 1700,600 1700,500" stroke="rgb(10%,10%,16%)" /><polygon fill="#ffffff" points="2000,450 2100,500 2100,600 2000,650 1900,600 1900,500" stroke="rgb(10%,10%,16%)" /><polygon fill="#ffffff" points="2200,450 2300,500 2300,600 2200,650 2100,600 2100,500" stroke="rgb(10%,10%,16%)" /><polygon fill="#ffffff" points="-100,600 0,650 0,750 -100,800 -200,750 -200,650" stroke="rgb(10%,10%,16%)" /><polygon fill="#ffffff" points="100,600 200,650 200,750 100,800 0,750 0,650" stroke="rgb(10%,10%,16%)" /><polygon fill="#000000" points="300,600 400,650 400,750 300,800 200,750 200,650" stroke="rgb(10%,10%,16%)" /><polygon fill="#ffffff" points="500,600 600,650 600,750 500,800 400,750 400,650" stroke="rgb(10%,10%,16%)" /><polygon fill="#ffffff" points="700,600 800,650 800,750 700,800 600,750 600,650" stroke="rgb(10%,10%,16%)" /><polygon fill="#ffffff" points="900,600 1000,650 1000,750 900,800 800,750 800,650" stroke="rgb(10%,10%,16%)" /><polygon fill="#000000" points="1100,600 1200,650 1200,750 1100,800 1000,750 1000,650" stroke="rgb(10%,10%,16%)" /><polygon fill="#ffffff" points="1300,600 1400,650 1400,750 1300,800 1200,750 1200,650" stroke="rgb(10%,10%,16%)" /><polygon fill="#000000" points="1500,600 1600,650 1600,750 1500,800 1400,750 1400,650" stroke="rgb(10%,10%,16%)" /><polygon fill="#000000" points="1700,600 1800,650 1800,750 1700,800 1600,750 1600,650" stroke="rgb(10%,10%,16%)" /><polygon fill="#ffffff" points="1900,600 2000,650 2000,750 1900,800 1800,750 1800,650" stroke="rgb(10%,10%,16%)" /><polygon fill="#ffffff" points="2100,600 2200,650 2200,750 2100,800 2000,750 2000,650" stroke="rgb(10%,10%,16%)" /><polygon fill="#ffffff" points="2300,600 2400,650 2400,750 2300,800 2200,750 2200,650" stroke="rgb(10%,10%,16%)" /><polygon fill="#ffffff" points="-200,750 -100,800 -100,900 -200,950 -300,900 -300,800" stroke="rgb(10%,10%,16%)" /><polygon fill="#ffffff" points="0,750 100,800 100,900 0,950 -100,900 -100,800" stroke="rgb(10%,10%,16%)" /><polygon fill="#ffffff" points="200,750 300,800 300,900 200,950 100,900 100,800" stroke="rgb(10%,10%,16%)" /><polygon fill="#ffffff" points="400,750 500,800 500,900 400,950 300,900 300,800" stroke="rgb(10%,10%,16%)" /><polygon fill="#ffffff" points="600,750 700,800 700,900 600,950 500,900 500,800" stroke="rgb(10%,10%,16%)" /><polygon fill="#ffffff" points="800,750 900,800 900,900 800,950 700,900 700,800" stroke="rgb(10%,10%,16%)" /><polygon fill="#ffffff" points="1000,750 1100,800 1100,900 1000,950 900,900 900,800" stroke="rgb(10%,10%,16%)" /><polygon fill="#ffffff" points="1200,750 1300,800 1300,900 1200,950 1100,900 1100,800" stroke="rgb(10%,10%,16%)" /><polygon fill="#ffffff" points="1400,750 1500,800 1500,900 1400,950 1300,900 1300,800" stroke="rgb(10%,10%,16%)" /><polygon fill="#ffffff" points="1600,750 1700,800 1700,900 1600,950 1500,900 1500,800" stroke="rgb(10%,10%,16%)" /><polygon fill="#ffffff" points="1800,750 1900,800 1900,900 1800,950 1700,900 1700,800" stroke="rgb(10%,10%,16%)" /><polygon fill="#ffffff" points="2000,750 2100,800 2100,900 2000,950 1900,900 1900,800" stroke="rgb(10%,10%,16%)" /><polygon fill="#ffffff" points="2200,750 2300,800 2300,900 2200,950 2100,900 2100,800" stroke="rgb(10%,10%,16%)" /><polygon fill="#ffffff" points="2400,750 2500,800 2500,900 2400,950 2300,900 2300,800" stroke="rgb(10%,10%,16%)" /><polygon fill="#ffffff" points="-300,900 -200,950 -200,1050 -300,1100 -400,1050 -400,950" stroke="rgb(10%,10%,16%)" /><polygon fill="#000000" points="-100,900 0,950 0,1050 -100,1100 -200,1050 -200,950" stroke="rgb(10%,10%,16%)" /><polygon fill="#ffffff" points="100,900 200,950 200,1050 100,1100 0,1050 0,950" stroke="rgb(10%,10%,16%)" /><polygon fill="#ffffff" points="300,900 400,950 400,1050 300,1100 200,1050 200,950" stroke="rgb(10%,10%,16%)" /><polygon fill="#ffffff" points="500,900 600,950 600,1050 500,1100 400,1050 400,950" stroke="rgb(10%,10%,16%)" /><polygon fill="#000000" points="700,900 800,950 800,1050 700,1100 600,1050 600,950" stroke="rgb(10%,10%,16%)" /><polygon fill="#000000" points="900,900 1000,950 1000,1050 900,1100 800,1050 800,950" stroke="rgb(10%,10%,16%)" /><polygon fill="#ffffff" points="1100,900 1200,950 1200,1050 1100,1100 1000,1050 1000,950" stroke="rgb(10%,10%,16%)" /><polygon fill="#ffffff" points="1300,900 1400,950 1400,1050 1300,1100 1200,1050 1200,950" stroke="rgb(10%,10%,16%)" /><polygon fill="#ffffff" points="1500,900 1600,950 1600,1050 1500,1100 1400,1050 1400,950" stroke="rgb(10%,10%,16%)" /><polygon fill="#000000" points="1700,900 1800,950 1800,1050 1700,1100 1600,1050 1600,950" stroke="rgb(10%,10%,16%)" /><polygon fill="#ffffff" points="1900,900 2000,950 2000,1050 1900,1100 1800,1050 1800,950" stroke="rgb(10%,10%,16%)" /><polygon fill="#ffffff" points="2100,900 2200,950 2200,1050 2100,1100 2000,1050 2000,950" stroke="rgb(10%,10%,16%)" /><polygon fill="#ffffff" points="2300,900 2400,950 2400,1050 2300,1100 2200,1050 2200,950" stroke="rgb(10%,10%,16%)" /><polygon fill="#000000" points="2500,900 2600,950 2600,1050 2500,1100 2400,1050 2400,950" stroke="rgb(10%,10%,16%)" /><polygon fill="#ffffff" points="-400,1050 -300,1100 -300,1200 -400,1250 -500,1200 -500,1100" stroke="rgb(10%,10%,16%)" /><polygon fill="#000000" points="-200,1050 -100,1100 -100,1200 -200,1250 -300,1200 -300,1100" stroke="rgb(10%,10%,16%)" /><polygon fill="#000000" points="0,1050 100,1100 100,1200 0,1250 -100,1200 -100,1100" stroke="rgb(10%,10%,16%)" /><polygon fill="#ffffff" points="200,1050 300,1100 300,1200 200,1250 100,1200 100,1100" stroke="rgb(10%,10%,16%)" /><polygon fill="#ffffff" points="400,1050 500,1100 500,1200 400,1250 300,1200 300,1100" stroke="rgb(10%,10%,16%)" /><polygon fill="#ffffff" points="600,1050 700,1100 700,1200 600,1250 500,1200 500,1100" stroke="rgb(10%,10%,16%)" /><polygon fill="#000000" points="800,1050 900,1100 900,1200 800,1250 700,1200 700,1100" stroke="rgb(10%,10%,16%)" /><polygon fill="#ffffff" points="1000,1050 1100,1100 1100,1200 1000,1250 900,1200 900,1100" stroke="rgb(10%,10%,16%)" /><polygon fill="#ffffff" points="1200,1050 1300,1100 1300,1200 1200,1250 1100,1200 1100,1100" stroke="rgb(10%,10%,16%)" /><polygon fill="#ffffff" points="1400,1050 1500,1100 1500,1200 1400,1250 1300,1200 1300,1100" stroke="rgb(10%,10%,16%)" /><polygon fill="#000000" points="1600,1050 1700,1100 1700,1200 1600,1250 1500,1200 1500,1100" stroke="rgb(10%,10%,16%)" /><polygon fill="#000000" points="1800,1050 1900,1100 1900,1200 1800,1250 1700,1200 1700,1100" stroke="rgb(10%,10%,16%)" /><polygon fill="#ffffff" points="2000,1050 2100,1100 2100,1200 2000,1250 1900,1200 1900,1100" stroke="rgb(10%,10%,16%)" /><polygon fill="#ffffff" points="2200,1050 2300,1100 2300,1200 2200,1250 2100,1200 2100,1100" stroke="rgb(10%,10%,16%)" /><polygon fill="#ffffff" points="2400,1050 2500,1100 2500,1200 2400,1250 2300,1200 2300,1100" stroke="rgb(10%,10%,16%)" /><polygon fill="#000000" points="2600,1050 2700,1100 2700,1200 2600,1250 2500,1200 2500,1100" stroke="rgb(10%,10%,16%)" /><polygon fill="#ffffff" points="-500,1200 -400,1250 -400,1350 -500,1400 -600,1350 -600,1250" stroke="rgb(10%,10%,16%)" /><polygon fill="#000000" points="-300,1200 -200,1250 -200,1350 -300,1400 -400,1350 -400,1250" stroke="rgb(10%,10%,16%)" /><polygon fill="#ffffff" points="-100,1200 0,1250 0,1350 -100,1400 -200,1350 -200,1250" stroke="rgb(10%,10%,16%)" /><polygon fill="#000000" points="100,1200 200,1250 200,1350 100,1400 0,1350 0,1250" stroke="rgb(10%,10%,16%)" /><polygon fill="#ffffff" points="300,1200 400,1250 400,1350 300,1400 200,1350 200,1250" stroke="rgb(10%,10%,16%)" /><polygon fill="#ffffff" points="500,1200 600,1250 600,1350 500,1400 400,1350 400,1250" stroke="rgb(10%,10%,16%)" /><polygon fill="#000000" points="700,1200 800,1250 800,1350 700,1400 600,1350 600,1250" stroke="rgb(10%,10%,16%)" /><polygon fill="#ffffff" points="900,1200 1000,1250 1000,1350 900,1400 800,1350 800,1250" stroke="rgb(10%,10%,16%)" /><polygon fill="#ffffff" points="1100,1200 1200,1250 1200,1350 1100,1400 1000,1350 1000,1250" stroke="rgb(10%,10%,16%)" /><polygon fill="#ffffff" points="1300,1200 1400,1250 1400,1350 1300,1400 1200,1350 1200,1250" stroke="rgb(10%,10%,16%)" /><polygon fill="#000000" points="1500,1200 1600,1250 1600,1350 1500,1400 1400,1350 1400,1250" stroke="rgb(10%,10%,16%)" /><polygon fill="#ffffff" points="1700,1200 1800,1250 1800,1350 1700,1400 1600,1350 1600,1250" stroke="rgb(10%,10%,16%)" /><polygon fill="#000000" points="1900,1200 2000,1250 2000,1350 1900,1400 1800,1350 1800,1250" stroke="rgb(10%,10%,16%)" /><polygon fill="#ffffff" points="2100,1200 2200,1250 2200,1350 2100,1400 2000,1350 2000,1250" stroke="rgb(10%,10%,16%)" /><polygon fill="#ffffff" points="2300,1200 2400,1250 2400,1350 2300,1400 2200,1350 2200,1250" stroke="rgb(10%,10%,16%)" /><polygon fill="#000000" points="2500,1200 2600,1250 2600,1350 2500,1400 2400,1350 2400,1250" stroke="rgb(10%,10%,16%)" /><polygon fill="#ffffff" points="2700,1200 2800,1250 2800,1350 2700,1400 2600,1350 2600,1250" stroke="rgb(10%,10%,16%)" /><polygon fill="#000000" points="-400,1350 -300,1400 -300,1500 -400,1550 -500,1500 -500,1400" stroke="rgb(10%,10%,16%)" /><polygon fill="#000000" points="-200,1350 -100,1400 -100,1500 -200,1550 -300,1500 -300,1400" stroke="rgb(10%,10%,16%)" /><polygon fill="#000000" points="0,1350 100,1400 100,1500 0,1550 -100,1500 -100,1400" stroke="rgb(10%,10%,16%)" /><polygon fill="#000000" points="200,1350 300,1400 300,1500 200,1550 100,1500 100,1400" stroke="rgb(10%,10%,16%)" /><polygon fill="#ffffff" points="400,1350 500,1400 500,1500 400,1550 300,1500 300,1400" stroke="rgb(10%,10%,16%)" /><polygon fill="#ffffff" points="600,1350 700,1400 700,1500 600,1550 500,1500 500,1400" stroke="rgb(10%,10%,16%)" /><polygon fill="#000000" points="800,1350 900,1400 900,1500 800,1550 700,1500 700,1400" stroke="rgb(10%,10%,16%)" /><polygon fill="#ffffff" points="1000,1350 1100,1400 1100,1500 1000,1550 900,1500 900,1400" stroke="rgb(10%,10%,16%)" /><polygon fill="#ffffff" points="1200,1350 1300,1400 1300,1500 1200,1550 1100,1500 1100,1400" stroke="rgb(10%,10%,16%)" /><polygon fill="#000000" points="1400,1350 1500,1400 1500,1500 1400,1550 1300,1500 1300,1400" stroke="rgb(10%,10%,16%)" /><polygon fill="#000000" points="1600,1350 1700,1400 1700,1500 1600,1550 1500,1500 1500,1400" stroke="rgb(10%,10%,16%)" /><polygon fill="#000000" points="1800,1350 1900,1400 1900,1500 1800,1550 1700,1500 1700,1400" stroke="rgb(10%,10%,16%)" /><polygon fill="#000000" points="2000,1350 2100,1400 2100,1500 2000,1550 1900,1500 1900,1400" stroke="rgb(10%,10%,16%)" /><polygon fill="#ffffff" points="2200,1350 2300,1400 2300,1500 2200,1550 2100,1500 2100,1400" stroke="rgb(10%,10%,16%)" /><polygon fill="#ffffff" points="2400,1350 2500,1400 2500,1500 2400,1550 2300,1500 2300,1400" stroke="rgb(10%,10%,16%)" /><polygon fill="#000000" points="2600,1350 2700,1400 2700,1500 2600,1550 2500,1500 2500,1400" stroke="rgb(10%,10%,16%)" /><polygon fill="#ffffff" points="-300,1500 -200,1550 -200,1650 -300,1700 -400,1650 -400,1550" stroke="rgb(10%,10%,16%)" /><polygon fill="#ffffff" points="-100,1500 0,1550 0,1650 -100,1700 -200,1650 -200,1550" stroke="rgb(10%,10%,16%)" /><polygon fill="#ffffff" points="100,1500 200,1550 200,1650 100,1700 0,1650 0,1550" stroke="rgb(10%,10%,16%)" /><polygon fill="#000000" points="300,1500 400,1550 400,1650 300,1700 200,1650 200,1550" stroke="rgb(10%,10%,16%)" /><polygon fill="#ffffff" points="500,1500 600,1550 600,1650 500,1700 400,1650 400,1550" stroke="rgb(10%,10%,16%)" /><polygon fill="#000000" points="700,1500 800,1550 800,1650 700,1700 600,1650 600,1550" stroke="rgb(10%,10%,16%)" /><polygon fill="#000000" points="900,1500 1000,1550 1000,1650 900,1700 800,1650 800,1550" stroke="rgb(10%,10%,16%)" /><polygon fill="#ffffff" points="1100,1500 1200,1550 1200,1650 1100,1700 1000,1650 1000,1550" stroke="rgb(10%,10%,16%)" /><polygon fill="#000000" points="1300,1500 1400,1550 1400,1650 1300,1700 1200,1650 1200,1550" stroke="rgb(10%,10%,16%)" /><polygon fill="#ffffff" points="1500,1500 1600,1550 1600,1650 1500,1700 1400,1650 1400,1550" stroke="rgb(10%,10%,16%)" /><polygon fill="#ffffff" points="1700,1500 1800,1550 1800,1650 1700,1700 1600,1650 1600,1550" stroke="rgb(10%,10%,16%)" /><polygon fill="#ffffff" points="1900,1500 2000,1550 2000,1650 1900,1700 1800,1650 1800,1550" stroke="rgb(10%,10%,16%)" /><polygon fill="#000000" points="2100,1500 2200,1550 2200,1650 2100,1700 2000,1650 2000,1550" stroke="rgb(10%,10%,16%)" /><polygon fill="#ffffff" points="2300,1500 2400,1550 2400,1650 2300,1700 2200,1650 2200,1550" stroke="rgb(10%,10%,16%)" /><polygon fill="#000000" points="2500,1500 2600,1550 2600,1650 2500,1700 2400,1650 2400,1550" stroke="rgb(10%,10%,16%)" /><polygon fill="#ffffff" points="-200,1650 -100,1700 -100,1800 -200,1850 -300,1800 -300,1700" stroke="rgb(10%,10%,16%)" /><polygon fill="#ffffff" points="0,1650 100,1700 100,1800 0,1850 -100,1800 -100,1700" stroke="rgb(10%,10%,16%)" /><polygon fill="#ffffff" points="200,1650 300,1700 300,1800 200,1850 100,1800 100,1700" stroke="rgb(10%,10%,16%)" /><polygon fill="#ffffff" points="400,1650 500,1700 500,1800 400,1850 300,1800 300,1700" stroke="rgb(10%,10%,16%)" /><polygon fill="#ffffff" points="600,1650 700,1700 700,1800 600,1850 500,1800 500,1700" stroke="rgb(10%,10%,16%)" /><polygon fill="#ffffff" points="800,1650 900,1700 900,1800 800,1850 700,1800 700,1700" stroke="rgb(10%,10%,16%)" /><polygon fill="#ffffff" points="1000,1650 1100,1700 1100,1800 1000,1850 900,1800 900,1700" stroke="rgb(10%,10%,16%)" /><polygon fill="#ffffff" points="1200,1650 1300,1700 1300,1800 1200,1850 1100,1800 1100,1700" stroke="rgb(10%,10%,16%)" /><polygon fill="#ffffff" points="1400,1650 1500,1700 1500,1800 1400,1850 1300,1800 1300,1700" stroke="rgb(10%,10%,16%)" /><polygon fill="#ffffff" points="1600,1650 1700,1700 1700,1800 1600,1850 1500,1800 1500,1700" stroke="rgb(10%,10%,16%)" /><polygon fill="#ffffff" points="1800,1650 1900,1700 1900,1800 1800,1850 1700,1800 1700,1700" stroke="rgb(10%,10%,16%)" /><polygon fill="#ffffff" points="2000,1650 2100,1700 2100,1800 2000,1850 1900,1800 1900,1700" stroke="rgb(10%,10%,16%)" /><polygon fill="#ffffff" points="2200,1650 2300,1700 2300,1800 2200,1850 2100,1800 2100,1700" stroke="rgb(10%,10%,16%)" /><polygon fill="#ffffff" points="2400,1650 2500,1700 2500,1800 2400,1850 2300,1800 2300,1700" stroke="rgb(10%,10%,16%)" /><polygon fill="#ffffff" points="-100,1800 0,1850 0,1950 -100,2000 -200,1950 -200,1850" stroke="rgb(10%,10%,16%)" /><polygon fill="#ffffff" points="100,1800 200,1850 200,1950 100,2000 0,1950 0,1850" stroke="rgb(10%,10%,16%)" /><polygon fill="#ffffff" points="300,1800 400,1850 400,1950 300,2000 200,1950 200,1850" stroke="rgb(10%,10%,16%)" /><polygon fill="#ffffff" points="500,1800 600,1850 600,1950 500,2000 400,1950 400,1850" stroke="rgb(10%,10%,16%)" /><polygon fill="#ffffff" points="700,1800 800,1850 800,1950 700,2000 600,1950 600,1850" stroke="rgb(10%,10%,16%)" /><polygon fill="#000000" points="900,1800 1000,1850 1000,1950 900,2000 800,1950 800,1850" stroke="rgb(10%,10%,16%)" /><polygon fill="#ffffff" points="1100,1800 1200,1850 1200,1950 1100,2000 1000,1950 1000,1850" stroke="rgb(10%,10%,16%)" /><polygon fill="#ffffff" points="1300,1800 1400,1850 1400,1950 1300,2000 1200,1950 1200,1850" stroke="rgb(10%,10%,16%)" /><polygon fill="#ffffff" points="1500,1800 1600,1850 1600,1950 1500,2000 1400,1950 1400,1850" stroke="rgb(10%,10%,16%)" /><polygon fill="#000000" points="1700,1800 1800,1850 1800,1950 1700,2000 1600,1950 1600,1850" stroke="rgb(10%,10%,16%)" /><polygon fill="#000000" points="1900,1800 2000,1850 2000,1950 1900,2000 1800,1950 1800,1850" stroke="rgb(10%,10%,16%)" /><polygon fill="#ffffff" points="2100,1800 2200,1850 2200,1950 2100,2000 2000,1950 2000,1850" stroke="rgb(10%,10%,16%)" /><polygon fill="#ffffff" points="2300,1800 2400,1850 2400,1950 2300,2000 2200,1950 2200,1850" stroke="rgb(10%,10%,16%)" /><polygon fill="#ffffff" points="0,1950 100,2000 100,2100 0,2150 -100,2100 -100,2000" stroke="rgb(10%,10%,16%)" /><polygon fill="#ffffff" points="200,1950 300,2000 300,2100 200,2150 100,2100 100,2000" stroke="rgb(10%,10%,16%)" /><polygon fill="#ffffff" points="400,1950 500,2000 500,2100 400,2150 300,2100 300,2000" stroke="rgb(10%,10%,16%)" /><polygon fill="#ffffff" points="600,1950 700,2000 700,2100 600,2150 500,2100 500,2000" stroke="rgb(10%,10%,16%)" /><polygon fill="#000000" points="800,1950 900,2000 900,2100 800,2150 700,2100 700,2000" stroke="rgb(10%,10%,16%)" /><polygon fill="#000000" points="1000,1950 1100,2000 1100,2100 1000,2150 900,2100 900,2000" stroke="rgb(10%,10%,16%)" /><polygon fill="#ffffff" points="1200,1950 1300,2000 1300,2100 1200,2150 1100,2100 1100,2000" stroke="rgb(10%,10%,16%)" /><polygon fill="#ffffff" points="1400,1950 1500,2000 1500,2100 1400,2150 1300,2100 1300,2000" stroke="rgb(10%,10%,16%)" /><polygon fill="#ffffff" points="1600,1950 1700,2000 1700,2100 1600,2150 1500,2100 1500,2000" stroke="rgb(10%,10%,16%)" /><polygon fill="#000000" points="1800,1950 1900,2000 1900,2100 1800,2150 1700,2100 1700,2000" stroke="rgb(10%,10%,16%)" /><polygon fill="#ffffff" points="2000,1950 2100,2000 2100,2100 2000,2150 1900,2100 1900,2000" stroke="rgb(10%,10%,16%)" /><polygon fill="#ffffff" points="2200,1950 2300,2000 2300,2100 2200,2150 2100,2100 2100,2000" stroke="rgb(10%,10%,16%)" /><polygon fill="#ffffff" points="100,2100 200,2150 200,2250 100,2300 0,2250 0,2150" stroke="rgb(10%,10%,16%)" /><polygon fill="#ffffff" points="300,2100 400,2150 400,2250 300,2300 200,2250 200,2150" stroke="rgb(10%,10%,16%)" /><polygon fill="#ffffff" points="500,2100 600,2150 600,2250 500,2300 400,2250 400,2150" stroke="rgb(10%,10%,16%)" /><polygon fill="#000000" points="700,2100 800,2150 800,2250 700,2300 600,2250 600,2150" stroke="rgb(10%,10%,16%)" /><polygon fill="#ffffff" points="900,2100 1000,2150 1000,2250 900,2300 800,2250 800,2150" stroke="rgb(10%,10%,16%)" /><polygon fill="#000000" points="1100,2100 1200,2150 1200,2250 1100,2300 1000,2250 1000,2150" stroke="rgb(10%,10%,16%)" /><polygon fill="#ffffff" points="1300,2100 1400,2150 1400,2250 1300,2300 1200,2250 1200,2150" stroke="rgb(10%,10%,16%)" /><polygon fill="#ffffff" points="1500,2100 1600,2150 1600,2250 1500,2300 1400,2250 1400,2150" stroke="rgb(10%,10%,16%)" /><polygon fill="#000000" points="1700,2100 1800,2150 1800,2250 1700,2300 1600,2250 1600,2150" stroke="rgb(10%,10%,16%)" /><polygon fill="#ffffff" points="1900,2100 2000,2150 2000,2250 1900,2300 1800,2250 1800,2150" stroke="rgb(10%,10%,16%)" /><polygon fill="#ffffff" points="2100,2100 2200,2150 2200,2250 2100,2300 2000,2250 2000,2150" stroke="rgb(10%,10%,16%)" /><polygon fill="#ffffff" points="200,2250 300,2300 300,2400 200,2450 100,2400 100,2300" stroke="rgb(10%,10%,16%)" /><polygon fill="#ffffff" points="400,2250 500,2300 500,2400 400,2450 300,2400 300,2300" stroke="rgb(10%,10%,16%)" /><polygon fill="#000000" points="600,2250 700,2300 700,2400 600,2450 500,2400 500,2300" stroke="rgb(10%,10%,16%)" /><polygon fill="#000000" points="800,2250 900,2300 900,2400 800,2450 700,2400 700,2300" stroke="rgb(10%,10%,16%)" /><polygon fill="#000000" points="1000,2250 1100,2300 1100,2400 1000,2450 900,2400 900,2300" stroke="rgb(10%,10%,16%)" /><polygon fill="#000000" points="1200,2250 1300,2300 1300,2400 1200,2450 1100,2400 1100,2300" stroke="rgb(10%,10%,16%)" /><polygon fill="#ffffff" points="1400,2250 1500,2300 1500,2400 1400,2450 1300,2400 1300,2300" stroke="rgb(10%,10%,16%)" /><polygon fill="#ffffff" points="1600,2250 1700,2300 1700,2400 1600,2450 1500,2400 1500,2300" stroke="rgb(10%,10%,16%)" /><polygon fill="#000000" points="1800,2250 1900,2300 1900,2400 1800,2450 1700,2400 1700,2300" stroke="rgb(10%,10%,16%)" /><polygon fill="#ffffff" points="2000,2250 2100,2300 2100,2400 2000,2450 1900,2400 1900,2300" stroke="rgb(10%,10%,16%)" /><polygon fill="#ffffff" points="300,2400 400,2450 400,2550 300,2600 200,2550 200,2450" stroke="rgb(10%,10%,16%)" /><polygon fill="#000000" points="500,2400 600,2450 600,2550 500,2600 400,2550 400,2450" stroke="rgb(10%,10%,16%)" /><polygon fill="#ffffff" points="700,2400 800,2450 800,2550 700,2600 600,2550 600,2450" stroke="rgb(10%,10%,16%)" /><polygon fill="#ffffff" points="900,2400 1000,2450 1000,2550 900,2600 800,2550 800,2450" stroke="rgb(10%,10%,16%)" /><polygon fill="#ffffff" points="1100,2400 1200,2450 1200,2550 1100,2600 1000,2550 1000,2450" stroke="rgb(10%,10%,16%)" /><polygon fill="#000000" points="1300,2400 1400,2450 1400,2550 1300,2600 1200,2550 1200,2450" stroke="rgb(10%,10%,16%)" /><polygon fill="#ffffff" points="1500,2400 1600,2450 1600,2550 1500,2600 1400,2550 1400,2450" stroke="rgb(10%,10%,16%)" /><polygon fill="#000000" points="1700,2400 1800,2450 1800,2550 1700,2600 1600,2550 1600,2450" stroke="rgb(10%,10%,16%)" /><polygon fill="#000000" points="1900,2400 2000,2450 2000,2550 1900,2600 1800,2550 1800,2450" stroke="rgb(10%,10%,16%)" /></svg>