<?xml version="1.0" encoding="utf-8" ?>
<svg baseProfile="full" height="100%" version="1.1" viewBox="0,0,1200,1000" width="100%" xmlns="http://www.w3.org/2000/svg" xmlns:ev="http://www.w3.org/2001/xml-events" xmlns:xlink="http://www.w3.org/1999/xlink"><defs /><rect fill="#ffffff" height="100" stroke="rgb(10%,10%,16%)" width="100" x="0" y="0" /><rect fill="#ffffff" height="100" stroke="rgb(10%,10%,16%)" width="100" x="100" y="0" /><rect fill="#ffffff" height="100" stroke="rgb(10%,10%,16%)" width="100" x="200" y="0" /><rect fill="#ffffff" height="100" stroke="rgb(10%,10%,16%)" width="100" x="300" y="0" /><rect fill="#ffffff" height="100" stroke="rgb(10%,10%,16%)" width="100" x="400" y="0" /><rect fill="#000000" height="100" stroke="rgb(10%,10%,16%)" width="100" x="500" y="0" /><rect fill="#000000" height="100" stroke="rgb(10%,10%,16%)" width="100" x="600" y="0" /><rect fill="#ffffff" height="100" stroke="rgb(10%,10%,16%)" width="100" x="700" y="0" /><rect fill="#ffffff" height="100" stroke="rgb(10%,10%,16%)" width="100" x="800" y="0" /><rect fill="#ffffff" height="100" stroke="rgb(10%,10%,16%)" width="100" x="900" y="0" /><rect fill="#ffffff" height="100" stroke="rgb(10%,10%,16%)" width="100" x="1000" y="0" /><rect fill="#ffffff" height="100" stroke="rgb(10%,10%,16%)" width="100" x="1100" y="0" /><rect fill="#ffffff" height="100" stroke="rgb(10%,10%,16%)" width="100" x="0" y="100" /><rect fill="#ffffff" height="100" stroke="rgb(10%,10%,16%)" width="100" x="100" y="100" /><rect fill="#ffffff" height="100" stroke="rgb(10%,10%,16%)" width="100" x="200" y="100" /><rect fill="#ffffff" height="100" stroke="rgb(10%,10%,16%)" width="100" x="300" y="100" /><rect fill="#ffffff" height="100" stroke="rgb(10%,10%,16%)" width="100" x="400" y="100" /><rect fill="#000000" height="100" stroke="rgb(10%,10%,16%)" width="100" x="500" y="100" /><rect fill="#ffffff" height="100" stroke="rgb(10%,10%,16%)" width="100" x="600" y="100" /><rect fill="#ffffff" height="100" stroke="rgb(10%,10%,16%)" width="100" x="700" y="100" /><rect fill="#ffffff" height="100" stroke="rgb(10%,10%,16%)" width="100" x="800" y="100" /><rect fill="#ffffff" height="100" stroke="rgb(10%,10%,16%)" width="100" x="900" y="100" /><rect fill="#ffffff" height="100" stroke="rgb(10%,10%,16%)" width="100" x="1000" y="100" /><rect fill="#ffffff" height="100" stroke="rgb(10%,10%,16%)" width="100" x="1100" y="100" /><rect fill="#ffffff" height="100" stroke="rgb(10%,10%,16%)" width="100" x="0" y="200" /><rect fill="#ffffff" height="100" stroke="rgb(10%,10%,16%)" width="100" x="100" y="200" /><rect fill="#ff0000" height="100" stroke="rgb(10%,10%,16%)" width="100" x="200" y="200" /><rect fill="#ff0000" height="100" stroke="rgb(10%,10%,16%)" width="100" x="300" y="200" /><rect fill="#ff0000" height="100" stroke="rgb(10%,10%,16%)" width="100" x="400" y="200" /><rect fill="#000000" height="100" stroke="rgb(10%,10%,16%)" width="100" x="500" y="200" /><rect fill="#ff0000" height="100" stroke="rgb(10%,10%,16%)" width="100" x="600" y="200" /><rect fill="#ff0000" height="100" stroke="rgb(10%,10%,16%)" width="100" x="700" y="200" /><rect fill="#ff0000" height="100" stroke="rgb(10%,10%,16%)" width="100" x="800" y="200" /><rect fill="#ffffff" height="100" stroke="rgb(10%,10%,16%)" width="100" x="900" y="200" /><rect fill="#ffffff" height="100" stroke="rgb(10%,10%,16%)" width="100" x="1000" y="200" /><rect fill="#ffffff" height="100" stroke="rgb(10%,10%,16%)" width="100" x="1100" y="200" /><rect fill="#ffffff" height="100" stroke="rgb(10%,10%,16%)" width="100" x="0" y="300" /><rect fill="#ffffff" height="100" stroke="rgb(10%,10%,16%)" width="100" x="100" y="300" /><rect fill="#ff0000" height="100" stroke="rgb(10%,10%,16%)" width="100" x="200" y="300" /><rect fill="#ff0000" height="100" stroke="rgb(10%,10%,16%)" width="100" x="300" y="300" /><rect fill="#ff0000" height="100" stroke="rgb(10%,10%,16%)" width="100" x="400" y="300" /><rect fill="#ff0000" height="100" stroke="rgb(10%,10%,16%)" width="100" x="500" y="300" /><rect fill="#ff0000" height="100" stroke="rgb(10%,10%,16%)" width="100" x="600" y="300" /><rect fill="#ff0000" height="100" stroke="rgb(10%,10%,16%)" width="100" x="700" y="300" /><rect fill="#ff0000" height="100" stroke="rgb(10%,10%,16%)" width="100" x="800" y="300" /><rect fill="#ff0000" height="100" stroke="rgb(10%,10%,16%)" width="100" x="900" y="300" /><rect fill="#ffffff" height="100" stroke="rgb(10%,10%,16%)" width="100" x="1000" y="300" /><rect fill="#ffffff" height="100" stroke="rgb(10%,10%,16%)" width="100" x="1100" y="300" /><rect fill="#ffffff" height="100" stroke="rgb(10%,10%,16%)" width="100" x="0" y="400" /><rect fill="#ff0000" height="100" stroke="rgb(10%,10%,16%)" width="100" x="100" y="400" /><rect fill="#ff0000" height="100" stroke="rgb(10%,10%,16%)" width="100" x="200" y="400" /><rect fill="#ff0000" height="100" stroke="rgb(10%,10%,16%)" width="100" x="300" y="400" /><rect fill="#ff0000" height="100" stroke="rgb(10%,10%,16%)" width="100" x="400" y="400" /><rect fill="#ff0000" height="100" stroke="rgb(10%,10%,16%)" width="100" x="500" y="400" /><rect fill="#ff0000" height="100" stroke="rgb(10%,10%,16%)" width="100" x="600" y="400" /><rect fill="#ff0000" height="100" stroke="rgb(10%,10%,16%)" width="100" x="700" y="400" /><rect fill="#ff0000" height="100" stroke="rgb(10%,10%,16%)" width="100" x="800" y="400" /><rect fill="#ff0000" height="100" stroke="rgb(10%,10%,16%)" width="100" x="900" y="400" /><rect fill="#ffffff" height="100" stroke="rgb(10%,10%,16%)" width="100" x="1000" y="400" /><rect fill="#ffffff" height="100" stroke="rgb(10%,10%,16%)" width="100" x="1100" y="400" /><rect fill="#ffffff" height="100" stroke="rgb(10%,10%,16%)" width="100" x="0" y="500" /><rect fill="#ff0000" height="100" stroke="rgb(10%,10%,16%)" width="100" x="100" y="500" /><rect fill="#ff0000" height="100" stroke="rgb(10%,10%,16%)" width="100" x="200" y="500" /><rect fill="#ff0000" height="100" stroke="rgb(10%,10%,16%)" width="100" x="300" y="500" /><rect fill="#ff0000" height="100" stroke="rgb(10%,10%,16%)" width="100" x="400" y="500" /><rect fill="#ff0000" height="100" stroke="rgb(10%,10%,16%)" width="100" x="500" y="500" /><rect fill="#ff0000" height="100" stroke="rgb(10%,10%,16%)" width="100" x="600" y="500" /><rect fill="#ff0000" height="100" stroke="rgb(10%,10%,16%)" width="100" x="700" y="500" /><rect fill="#ff0000" height="100" stroke="rgb(10%,10%,16%)" width="100" x="800" y="500" /><rect fill="#ff0000" height="100" stroke="rgb(10%,10%,16%)" width="100" x="900" y="500" /><rect fill="#ffffff" height="100" stroke="rgb(10%,10%,16%)" width="100" x="1000" y="500" /><rect fill="#ffffff" height="100" stroke="rgb(10%,10%,16%)" width="100" x="1100" y="500" /><rect fill="#ffffff" height="100" stroke="rgb(10%,10%,16%)" width="100" x="0" y="600" /><rect fill="#ff0000" height="100" stroke="rgb(10%,10%,16%)" width="100" x="100" y="600" /><rect fill="#ff0000" height="100" stroke="rgb(10%,10%,16%)" width="100" x="200" y="600" /><rect fill="#ff0000" height="100" stroke="rgb(10%,10%,16%)" width="100" x="300" y="600" /><rect fill="#ff0000" height="100" stroke="rgb(10%,10%,16%)" width="100" x="400" y="600" /><rect fill="#ff0000" height="100" stroke="rgb(10%,10%,16%)" width="100" x="500" y="600" /><rect fill="#ff0000" height="100" stroke="rgb(10%,10%,16%)" width="100" x="600" y="600" /><rect fill="#ff0000" height="100" stroke="rgb(10%,10%,16%)" width="100" x="700" y="600" /><rect fill="#ff0000" height="100" stroke="rgb(10%,10%,16%)" width="100" x="800" y="600" /><rect fill="#ff0000" height="100" stroke="rgb(10%,10%,16%)" width="100" x="900" y="600" /><rect fill="#ffffff" height="100" stroke="rgb(10%,10%,16%)" width="100" x="1000" y="600" /><rect fill="#ffffff" height="100" stroke="rgb(10%,10%,16%)" width="100" x="1100" y="600" /><rect fill="#ffffff" height="100" stroke="rgb(10%,10%,16%)" width="100" x="0" y="700" /><rect fill="#ffffff" height="100" stroke="rgb(10%,10%,16%)" width="100" x="100" y="700" /><rect fill="#ff0000" height="100" stroke="rgb(10%,10%,16%)" width="100" x="200" y="700" /><rect fill="#ff0000" height="100" stroke="rgb(10%,10%,16%)" width="100" x="300" y="700" /><rect fill="#ff0000" height="100" stroke="rgb(10%,10%,16%)" width="100" x="400" y="700" /><rect fill="#ff0000" height="100" stroke="rgb(10%,10%,16%)" width="100" x="500" y="700" /><rect fill="#ff0000" height="100" stroke="rgb(10%,10%,16%)" width="100" x="600" y="700" /><rect fill="#ff0000" height="100" stroke="rgb(10%,10%,16%)" width="100" x="700" y="700" /><rect fill="#ff0000" height="100" stroke="rgb(10%,10%,16%)" width="100" x="800" y="700" /><rect fill="#ffffff" height="100" stroke="rgb(10%,10%,16%)" width="100" x="900" y="700" /><rect fill="#ffffff" height="100" stroke="rgb(10%,10%,16%)" width="100" x="1000" y="700" /><rect fill="#ffffff" height="100" stroke="rgb(10%,10%,16%)" width="100" x="1100" y="700" /><rect fill="#ffffff" height="100" stroke="rgb(10%,10%,16%)" width="100" x="0" y="800" /><rect fill="#ffffff" height="100" stroke="rgb(10%,10%,16%)" width="100" x="100" y="800" /><rect fill="#ffffff" height="100" stroke="rgb(10%,10%,16%)" width="100" x="200" y="800" /><rect fill="#ff0000" height="100" stroke="rgb(10%,10%,16%)" width="100" x="300" y="800" /><rect fill="#ff0000" height="100" stroke="rgb(10%,10%,16%)" width="100" x="400" y="800" /><rect fill="#ff0000" height="100" stroke="rgb(10%,10%,16%)" width="100" x="500" y="800" /><rect fill="#ff0000" height="100" stroke="rgb(10%,10%,16%)" width="100" x="600" y="800" /><rect fill="#ffffff" height="100" stroke="rgb(10%,10%,16%)" width="100" x="700" y="800" /><rect fill="#ffffff" height="100" stroke="rgb(10%,10%,16%)" width="100" x="800" y="800" /><rect fill="#ffffff" height="100" stroke="rgb(10%,10%,16%)" width="100" x="900" y="800" /><rect fill="#ffffff" height="100" stroke="rgb(10%,10%,16%)" width="100" x="1000" y="800" /><rect fill="#ffffff" height="100" stroke="rgb(10%,10%,16%)" width="100" x="1100" y="800" /><rect fill="#ffffff" height="100" stroke="rgb(10%,10%,16%)" width="100" x="0" y="900" /><rect fill="#ffffff" height="100" stroke="rgb(10%,10%,16%)" width="100" x="100" y="900" /><rect fill="#ffffff" height="100" stroke="rgb(10%,10%,16%)" width="100" x="200" y="900" /><rect fill="#ffffff" height="100" stroke="rgb(10%,10%,16%)" width="100" x="300" y="900" /><rect fill="#ffffff" height="100" stroke="rgb(10%,10%,16%)" width="100" x="400" y="900" /><rect fill="#ffffff" height="100" stroke="rgb(10%,10%,16%)" width="100" x="500" y="900" /><rect fill="#ffffff" height="100" stroke="rgb(10%,10%,16%)" width="100" x="600" y="900" /><rect fill="#ffffff" height="100" stroke="rgb(10%,10%,16%)" width="100" x="700" y="900" /><rect fill="#ffffff" height="100" stroke="rgb(10%,10%,16%)" width="100" x="800" y="900" /><rect fill="#ffffff" height="100" stroke="rgb(10%,10%,16%)" width="100" x="900" y="900" /><rect fill="#ffffff" height="100" stroke="rgb(10%,10%,16%)" width="100" x="1000" y="900" /><rect fill="#ffffff" height="100" stroke="rgb(10%,10%,16%)" width="100" x="1100" y="900" /></svg>