<?xml version="1.0" encoding="utf-8" ?>
<svg baseProfile="full" height="100%" version="1.1" viewBox="0,0,500,1000" width="100%" xmlns="http://www.w3.org/2000/svg" xmlns:ev="http://www.w3.org/2001/xml-events" xmlns:xlink="http://www.w3.org/1999/xlink"><defs /><rect fill="#FFFFFF" height="100" stroke="rgb(10%,10%,16%)" width="100" x="0" y="0" /><rect fill="#000000" height="100" stroke="rgb(10%,10%,16%)" width="100" x="100" y="0" /><rect fill="#000000" height="100" stroke="rgb(10%,10%,16%)" width="100" x="200" y="0" /><rect fill="#FFFFFF" height="100" stroke="rgb(10%,10%,16%)" width="100" x="300" y="0" /><rect fill="#FFFFFF" height="100" stroke="rgb(10%,10%,16%)" width="100" x="400" y="0" /><rect fill="#FFFFFF" height="100" stroke="rgb(10%,10%,16%)" width="100" x="0" y="100" /><rect fill="#000000" height="100" stroke="rgb(10%,10%,16%)" width="100" x="100" y="100" /><rect fill="#000000" height="100" stroke="rgb(10%,10%,16%)" width="100" x="200" y="100" /><rect fill="#FFFFFF" height="100" stroke="rgb(10%,10%,16%)" width="100" x="300" y="100" /><rect fill="#000000" height="100" stroke="rgb(10%,10%,16%)" width="100" x="400" y="100" /><rect fill="#FFFFFF" height="100" stroke="rgb(10%,10%,16%)" width="100" x="0" y="200" /><rect fill="#FFFFFF" height="100" stroke="rgb(10%,10%,16%)" width="100" x="100" y="200" /><rect fill="#000000" height="100" stroke="rgb(10%,10%,16%)" width="100" x="200" y="200" /><rect fill="#FFFFFF" height="100" stroke="rgb(10%,10%,16%)" width="100" x="300" y="200" /><rect fill="#000000" height="100" stroke="rgb(10%,10%,16%)" width="100" x="400" y="200" /><rect fill="#FFFFFF" height="100" stroke="rgb(10%,10%,16%)" width="100" x="0" y="300" /><rect fill="#000000" height="100" stroke="rgb(10%,10%,16%)" width="100" x="100" y="300" /><rect fill="#000000" height="100" stroke="rgb(10%,10%,16%)" width="100" x="200" y="300" /><rect fill="#000000" height="100" stroke="rgb(10%,10%,16%)" width="100" x="300" y="300" /><rect fill="#FFFFFF" height="100" stroke="rgb(10%,10%,16%)" width="100" x="400" y="300" /><rect fill="#000000" height="100" stroke="rgb(10%,10%,16%)" width="100" x="0" y="400" /><rect fill="#FFFFFF" height="100" stroke="rgb(10%,10%,16%)" width="100" x="100" y="400" /><rect fill="#000000" height="100" stroke="rgb(10%,10%,16%)" width="100" x="200" y="400" /><rect fill="#FFFFFF" height="100" stroke="rgb(10%,10%,16%)" width="100" x="300" y="400" /><rect fill="#FFFFFF" height="100" stroke="rgb(10%,10%,16%)" width="100" x="400" y="400" /><rect fill="#000000" height="100" stroke="rgb(10%,10%,16%)" width="100" x="0" y="500" /><rect fill="#FFFFFF" height="100" stroke="rgb(10%,10%,16%)" width="100" x="100" y="500" /><rect fill="#000000" height="100" stroke="rgb(10%,10%,16%)" width="100" x="200" y="500" /><rect fill="#FFFFFF" height="100" stroke="rgb(10%,10%,16%)" width="100" x="300" y="500" /><rect fill="#FFFFFF" height="100" stroke="rgb(10%,10%,16%)" width="100" x="400" y="500" /><rect fill="#FFFFFF" height="100" stroke="rgb(10%,10%,16%)" width="100" x="0" y="600" /><rect fill="#FFFFFF" height="100" stroke="rgb(10%,10%,16%)" width="100" x="100" y="600" /><rect fill="#000000" height="100" stroke="rgb(10%,10%,16%)" width="100" x="200" y="600" /><rect fill="#000000" height="100" stroke="rgb(10%,10%,16%)" width="100" x="300" y="600" /><rect fill="#FFFFFF" height="100" stroke="rgb(10%,10%,16%)" width="100" x="400" y="600" /><rect fill="#FFFFFF" height="100" stroke="rgb(10%,10%,16%)" width="100" x="0" y="700" /><rect fill="#000000" height="100" stroke="rgb(10%,10%,16%)" width="100" x="100" y="700" /><rect fill="#FFFFFF" height="100" stroke="rgb(10%,10%,16%)" width="100" x="200" y="700" /><rect fill="#000000" height="100" stroke="rgb(10%,10%,16%)" width="100" x="300" y="700" /><rect fill="#FFFFFF" height="100" stroke="rgb(10%,10%,16%)" width="100" x="400" y="700" /><rect fill="#FFFFFF" height="100" stroke="rgb(10%,10%,16%)" width="100" x="0" y="800" /><rect fill="#000000" height="100" stroke="rgb(10%,10%,16%)" width="100" x="100" y="800" /><rect fill="#FFFFFF" height="100" stroke="rgb(10%,10%,16%)" width="100" x="200" y="800" /><rect fill="#000000" height="100" stroke="rgb(10%,10%,16%)" width="100" x="300" y="800" /><rect fill="#000000" height="100" stroke="rgb(10%,10%,16%)" width="100" x="400" y="800" /><rect fill="#000000" height="100" stroke="rgb(10%,10%,16%)" width="100" x="0" y="900" /><rect fill="#000000" height="100" stroke="rgb(10%,10%,16%)" width="100" x="100" y="900" /><rect fill="#FFFFFF" height="100" stroke="rgb(10%,10%,16%)" width="100" x="200" y="900" /><rect fill="#FFFFFF" height="100" stroke="rgb(10%,10%,16%)" width="100" x="300" y="900" /><rect fill="#FFFFFF" height="100" stroke="rgb(10%,10%,16%)" width="100" x="400" y="900" /></svg>