<?xml version="1.0" encoding="utf-8" ?>
<svg baseProfile="full" height="100%" version="1.1" viewBox="0,0,1000,1000" width="100%" xmlns="http://www.w3.org/2000/svg" xmlns:ev="http://www.w3.org/2001/xml-events" xmlns:xlink="http://www.w3.org/1999/xlink"><defs /><polygon fill="#111111" points="300,0 400,50 400,150 300,200 200,150 200,50" stroke="rgb(10%,10%,16%)" /><polygon fill="#222222" points="500,0 600,50 600,150 500,200 400,150 400,50" stroke="rgb(10%,10%,16%)" /><polygon fill="#111111" points="700,0 800,50 800,150 700,200 600,150 600,50" stroke="rgb(10%,10%,16%)" /><polygon fill="#222222" points="200,150 300,200 300,300 200,350 100,300 100,200" stroke="rgb(10%,10%,16%)" /><polygon fill="#111111" points="400,150 500,200 500,300 400,350 300,300 300,200" stroke="rgb(10%,10%,16%)" /><polygon fill="#111111" points="600,150 700,200 700,300 600,350 500,300 500,200" stroke="rgb(10%,10%,16%)" /><polygon fill="#222222" points="800,150 900,200 900,300 800,350 700,300 700,200" stroke="rgb(10%,10%,16%)" /><polygon fill="#111111" points="100,300 200,350 200,450 100,500 0,450 0,350" stroke="rgb(10%,10%,16%)" /><polygon fill="#111111" points="300,300 400,350 400,450 300,500 200,450 200,350" stroke="rgb(10%,10%,16%)" /><polygon fill="#222222" points="500,300 600,350 600,450 500,500 400,450 400,350" stroke="rgb(10%,10%,16%)" /><polygon fill="#111111" points="700,300 800,350 800,450 700,500 600,450 600,350" stroke="rgb(10%,10%,16%)" /><polygon fill="#111111" points="900,300 1000,350 1000,450 900,500 800,450 800,350" stroke="rgb(10%,10%,16%)" /><polygon fill="#222222" points="200,450 300,500 300,600 200,650 100,600 100,500" stroke="rgb(10%,10%,16%)" /><polygon fill="#111111" points="400,450 500,500 500,600 400,650 300,600 300,500" stroke="rgb(10%,10%,16%)" /><polygon fill="#111111" points="600,450 700,500 700,600 600,650 500,600 500,500" stroke="rgb(10%,10%,16%)" /><polygon fill="#222222" points="800,450 900,500 900,600 800,650 700,600 700,500" stroke="rgb(10%,10%,16%)" /><polygon fill="#111111" points="300,600 400,650 400,750 300,800 200,750 200,650" stroke="rgb(10%,10%,16%)" /><polygon fill="#222222" points="500,600 600,650 600,750 500,800 400,750 400,650" stroke="rgb(10%,10%,16%)" /><polygon fill="#111111" points="700,600 800,650 800,750 700,800 600,750 600,650" stroke="rgb(10%,10%,16%)" /></svg>